<svg id="Layer_3" data-name="Layer 3" xmlns="http://www.w3.org/2000/svg" viewBox="0 0 53.58 180.17"><defs><style>.cls-1{fill:#fcfeff;}.cls-2{fill:#edf1f2;}</style></defs><title>A</title><path class="cls-1" d="M2.42,179.18A1.42,1.42,0,0,1,1,177.76V102.89a1.43,1.43,0,0,1,1.42-1.43H13.67A3.43,3.43,0,0,0,17.1,98V2.41A1.43,1.43,0,0,1,18.52,1H40.38A1.43,1.43,0,0,1,41.8,2.41V98a3.43,3.43,0,0,0,3.43,3.42h5.92a1.43,1.43,0,0,1,1.43,1.43v74.87a1.42,1.42,0,0,1-1.43,1.42Z"/><path class="cls-2" d="M40.38,2a.43.43,0,0,1,.42.43V98a4.44,4.44,0,0,0,4.43,4.43h5.92a.42.42,0,0,1,.43.42v74.87a.42.42,0,0,1-.43.42H2.42a.42.42,0,0,1-.42-.42V102.89a.42.42,0,0,1,.42-.42H13.67A4.44,4.44,0,0,0,18.1,98V2.41A.43.43,0,0,1,18.52,2H40.38m0-2H18.52A2.42,2.42,0,0,0,16.1,2.41V98a2.43,2.43,0,0,1-2.43,2.43H2.42A2.42,2.42,0,0,0,0,102.89v74.87a2.42,2.42,0,0,0,2.42,2.42H51.15a2.42,2.42,0,0,0,2.43-2.42V102.89a2.42,2.42,0,0,0-2.43-2.42H45.23A2.43,2.43,0,0,1,42.8,98V2.41A2.42,2.42,0,0,0,40.38,0Z"/></svg>