<svg id="Layer_3" data-name="Layer 3" xmlns="http://www.w3.org/2000/svg" viewBox="0 0 53.57 180.19"><defs><style>.cls-1{fill:#fcfeff;}.cls-2{fill:#edf1f2;}</style></defs><title>C0</title><path class="cls-1" d="M9,179.19a1,1,0,0,1-.71-.29l-7-7a1,1,0,0,1-.29-.71V2.41A1.42,1.42,0,0,1,2.42,1H29.6A1.43,1.43,0,0,1,31,2.41V98.05a3.42,3.42,0,0,0,3.42,3.42h16.7a1.43,1.43,0,0,1,1.42,1.42v74.87a1.43,1.43,0,0,1-1.42,1.43Z"/><path class="cls-2" d="M29.6,2a.42.42,0,0,1,.43.42V98a4.43,4.43,0,0,0,4.42,4.43h16.7a.42.42,0,0,1,.42.42v74.87a.42.42,0,0,1-.42.43H9l-7-7V2.41A.42.42,0,0,1,2.42,2H29.6m0-2H2.42A2.42,2.42,0,0,0,0,2.41V171.15a2,2,0,0,0,.58,1.42l7,7a2,2,0,0,0,1.41.59H51.15a2.42,2.42,0,0,0,2.42-2.43V102.89a2.42,2.42,0,0,0-2.42-2.42H34.45A2.42,2.42,0,0,1,32,98V2.41A2.42,2.42,0,0,0,29.6,0Z"/></svg>