<svg id="Layer_3" data-name="Layer 3" xmlns="http://www.w3.org/2000/svg" viewBox="0 0 53.74 180.18"><defs><style>.cls-1{fill:#fcfeff;}.cls-2{fill:#edf1f2;}</style></defs><title>E</title><path class="cls-1" d="M2.42,179.18A1.42,1.42,0,0,1,1,177.76V102.89a1.43,1.43,0,0,1,1.42-1.43h16.7A3.43,3.43,0,0,0,22.55,98V2.41A1.43,1.43,0,0,1,24,1H51.15a1.43,1.43,0,0,1,1.43,1.43V177.76a1.42,1.42,0,0,1-1.43,1.42Z"/><path class="cls-2" d="M51.15,2a.43.43,0,0,1,.43.43V177.76a.42.42,0,0,1-.43.42H2.42a.42.42,0,0,1-.42-.42V102.89a.42.42,0,0,1,.42-.42h16.7A4.44,4.44,0,0,0,23.55,98V2.41A.43.43,0,0,1,24,2H51.15m0-2H24a2.42,2.42,0,0,0-2.42,2.43V98a2.43,2.43,0,0,1-2.43,2.43H2.42A2.42,2.42,0,0,0,0,102.89v74.87a2.42,2.42,0,0,0,2.42,2.42H51.15a2.42,2.42,0,0,0,2.43-2.42V2.41A2.43,2.43,0,0,0,51.15,0Z"/></svg>