<svg id="Layer_3" data-name="Layer 3" xmlns="http://www.w3.org/2000/svg" viewBox="0 0 53.58 180.21"><defs><style>.cls-1{fill:#fcfeff;}.cls-2{fill:#edf1f2;}</style></defs><title>F</title><path class="cls-1" d="M2.42,179.22A1.43,1.43,0,0,1,1,177.8V2.45A1.43,1.43,0,0,1,2.42,1H29.61A1.43,1.43,0,0,1,31,2.45V98.08a3.42,3.42,0,0,0,3.42,3.42h16.7a1.43,1.43,0,0,1,1.43,1.43V177.8a1.43,1.43,0,0,1-1.43,1.42Z"/><path class="cls-2" d="M29.61,2a.42.42,0,0,1,.42.43V98.08a4.42,4.42,0,0,0,4.42,4.42h16.7a.43.43,0,0,1,.43.43V177.8a.42.42,0,0,1-.43.42H2.42A.42.42,0,0,1,2,177.8V2.45A.42.42,0,0,1,2.42,2H29.61m0-2H2.42A2.43,2.43,0,0,0,0,2.45V177.8a2.42,2.42,0,0,0,2.42,2.42H51.15a2.42,2.42,0,0,0,2.43-2.42V102.93a2.43,2.43,0,0,0-2.43-2.43H34.45A2.42,2.42,0,0,1,32,98.08V2.45A2.43,2.43,0,0,0,29.61,0Z"/></svg>