<svg id="Layer_3" data-name="Layer 3" xmlns="http://www.w3.org/2000/svg" viewBox="0 0 53.58 180.2"><defs><style>.cls-1{fill:#fcfeff;}.cls-2{fill:#edf1f2;}</style></defs><title>F2</title><path class="cls-1" d="M2.43,179.2A1.43,1.43,0,0,1,1,177.77V2.42A1.43,1.43,0,0,1,2.43,1H51.15a1.43,1.43,0,0,1,1.43,1.42V171.16a1,1,0,0,1-.3.71l-7,7a1,1,0,0,1-.71.3Z"/><path class="cls-2" d="M51.15,2a.42.42,0,0,1,.43.42V171.17l-7,7H2.43a.43.43,0,0,1-.43-.43V2.42A.42.42,0,0,1,2.43,2H51.15m0-2H2.43A2.42,2.42,0,0,0,0,2.42V177.77a2.43,2.43,0,0,0,2.43,2.43H44.54a2,2,0,0,0,1.42-.59l7-7a2,2,0,0,0,.59-1.42V2.42A2.42,2.42,0,0,0,51.15,0Z"/></svg>