<svg id="Layer_3" data-name="Layer 3" xmlns="http://www.w3.org/2000/svg" viewBox="0 0 53.58 180.21"><defs><style>.cls-1{fill:#fcfeff;}.cls-2{fill:#edf1f2;}</style></defs><title>G</title><path class="cls-1" d="M2.42,179.22A1.43,1.43,0,0,1,1,177.8V102.93a1.43,1.43,0,0,1,1.42-1.43H8.35a3.42,3.42,0,0,0,3.42-3.42V2.45A1.43,1.43,0,0,1,13.2,1H35.05a1.43,1.43,0,0,1,1.43,1.43V98.08a3.42,3.42,0,0,0,3.42,3.42H51.15a1.43,1.43,0,0,1,1.43,1.43V177.8a1.43,1.43,0,0,1-1.43,1.42Z"/><path class="cls-2" d="M35.05,2a.43.43,0,0,1,.43.43V98.08a4.42,4.42,0,0,0,4.42,4.42H51.15a.43.43,0,0,1,.43.43V177.8a.42.42,0,0,1-.43.42H2.42A.42.42,0,0,1,2,177.8V102.93a.42.42,0,0,1,.42-.43H8.35a4.42,4.42,0,0,0,4.42-4.42V2.45A.43.43,0,0,1,13.2,2H35.05m0-2H13.2a2.43,2.43,0,0,0-2.43,2.43V98.08a2.42,2.42,0,0,1-2.42,2.42H2.42A2.43,2.43,0,0,0,0,102.93V177.8a2.42,2.42,0,0,0,2.42,2.42H51.15a2.42,2.42,0,0,0,2.43-2.42V102.93a2.43,2.43,0,0,0-2.43-2.43H39.9a2.42,2.42,0,0,1-2.42-2.42V2.45A2.43,2.43,0,0,0,35.05,0Z"/></svg>